<svg width="50" height="50" viewBox="0 0 50 50" fill="none" xmlns="http://www.w3.org/2000/svg">
<g clip-path="url(#clip0_1124_6925)">
<path d="M25 50C20.0555 50 15.222 48.5338 11.1108 45.7867C6.99953 43.0397 3.79521 39.1353 1.90302 34.5671C0.0108322 29.9989 -0.484251 24.9723 0.480379 20.1228C1.44501 15.2732 3.82603 10.8187 7.32234 7.32234C10.8187 3.82603 15.2732 1.44501 20.1228 0.480379C24.9723 -0.484251 29.9989 0.0108322 34.5671 1.90302C39.1353 3.79521 43.0397 6.99953 45.7867 11.1108C48.5338 15.222 50 20.0555 50 25C49.9928 31.6282 47.3566 37.9829 42.6698 42.6698C37.9829 47.3566 31.6282 49.9928 25 50ZM25 4.16668C20.8796 4.16668 16.8517 5.38853 13.4256 7.67773C9.99961 9.96692 7.32935 13.2206 5.75252 17.0274C4.1757 20.8342 3.76313 25.0231 4.56698 29.0644C5.37084 33.1057 7.35503 36.8178 10.2686 39.7314C13.1822 42.645 16.8944 44.6292 20.9356 45.433C24.9769 46.2369 29.1658 45.8243 32.9726 44.2475C36.7794 42.6707 40.0331 40.0004 42.3223 36.5744C44.6115 33.1484 45.8333 29.1205 45.8333 25C45.8273 19.4765 43.6304 14.181 39.7247 10.2753C35.819 6.36963 30.5235 4.17274 25 4.16668Z" fill="#F95B1C"/>
<path d="M22.917 10.416H27.0837V31.2494H22.917V10.416ZM22.917 35.416H27.0837V39.5827H22.917V35.416Z" fill="#F95B1C"/>
</g>
<defs>
<clipPath id="clip0_1124_6925">
<rect width="50" height="50" fill="white"/>
</clipPath>
</defs>
</svg>
