<svg width="86" height="104" viewBox="0 0 86 104" fill="none" xmlns="http://www.w3.org/2000/svg">
<path fill-rule="evenodd" clip-rule="evenodd" d="M39.5366 51.5644H46.7365V0H39.5366V51.5644Z" fill="#D492BF"/>
<path fill-rule="evenodd" clip-rule="evenodd" d="M17.3555 22.1823H68.9182V29.3825H17.3555V22.1823Z" fill="#73CBF3"/>
<path fill-rule="evenodd" clip-rule="evenodd" d="M63.9128 41.467L58.822 46.5581L22.3604 10.0971L27.4509 5.00565L63.9128 41.467Z" fill="#E95525"/>
<path fill-rule="evenodd" clip-rule="evenodd" d="M27.4509 46.5586L22.3604 41.4674L58.822 5.0061L63.9128 10.0973L27.4509 46.5586Z" fill="#7BBD67"/>
<path fill-rule="evenodd" clip-rule="evenodd" d="M7.98921 62.7383L8.01415 62.7908L0 80.5934H3.97194L9.99904 67.202L16.0281 80.5934H19.9979L11.9837 62.7908L12.0087 62.7383H7.98921Z" fill="white"/>
<path fill-rule="evenodd" clip-rule="evenodd" d="M29.2959 62.7383L29.3205 62.7908L21.3066 80.5934H25.2761L27.2974 76.108H35.3135L37.3322 80.5934H41.304L33.29 62.7908L33.315 62.7383H29.2959ZM31.3054 67.202L33.6837 72.4867H28.9271L31.3054 67.202Z" fill="white"/>
<path fill-rule="evenodd" clip-rule="evenodd" d="M56.9543 62.7383V62.74L48.0747 74.7656V62.7383H44.4531V80.5934H48.0747V80.597L56.9543 68.5716V80.5934H60.5759V62.7383H56.9543Z" fill="white"/>
<path fill-rule="evenodd" clip-rule="evenodd" d="M81.8331 62.7385H81.8398L81.8445 62.7327L81.8331 62.7385ZM81.8398 62.7385L75.8513 71.4862L69.7523 62.7385H65.7578V80.5935H69.3794V68.536L73.6429 74.6525L73.6315 74.67L73.679 74.7033L75.9306 77.7072L76.602 76.7409L78.0219 74.7033L78.0691 74.67L78.058 74.6525L81.8331 69.2362V80.5935H85.4547V62.7385H81.8398Z" fill="white"/>
<path fill-rule="evenodd" clip-rule="evenodd" d="M50.7717 56.8938L54.7392 62.3373H50.5298L46.5601 56.8938H50.7717Z" fill="white"/>
<path d="M22.3544 99.2975V90.9455H29.2824V99.2975H27.8744V92.1935H23.7624V99.2975H22.3544ZM36.0539 99.4575C35.3712 99.4575 34.7632 99.2868 34.2299 98.9455C33.6965 98.6042 33.2752 98.1722 32.9659 97.6495V102.705H31.5579V90.9455H32.8059V92.5135C33.1365 92.0015 33.5685 91.5908 34.1019 91.2815C34.6352 90.9615 35.2165 90.8015 35.8459 90.8015C36.4219 90.8015 36.9499 90.9188 37.4299 91.1535C37.9099 91.3882 38.3259 91.7082 38.6779 92.1135C39.0299 92.5188 39.3019 92.9828 39.4939 93.5055C39.6965 94.0175 39.7979 94.5562 39.7979 95.1215C39.7979 95.9108 39.6379 96.6362 39.3179 97.2975C39.0085 97.9588 38.5712 98.4868 38.0059 98.8815C37.4405 99.2655 36.7899 99.4575 36.0539 99.4575ZM35.6219 98.2415C36.0379 98.2415 36.4112 98.1562 36.7419 97.9855C37.0832 97.8042 37.3712 97.5695 37.6059 97.2815C37.8512 96.9828 38.0379 96.6468 38.1659 96.2735C38.2939 95.9002 38.3579 95.5162 38.3579 95.1215C38.3579 94.7055 38.2832 94.3108 38.1339 93.9375C37.9952 93.5642 37.7925 93.2335 37.5259 92.9455C37.2699 92.6575 36.9659 92.4335 36.6139 92.2735C36.2725 92.1028 35.8992 92.0175 35.4939 92.0175C35.2379 92.0175 34.9712 92.0655 34.6939 92.1615C34.4272 92.2575 34.1712 92.3962 33.9259 92.5775C33.6805 92.7482 33.4725 92.9455 33.3019 93.1695C33.1312 93.3935 33.0192 93.6335 32.9659 93.8895V96.2735C33.1259 96.6362 33.3392 96.9668 33.6059 97.2655C33.8725 97.5642 34.1819 97.8042 34.5339 97.9855C34.8859 98.1562 35.2485 98.2415 35.6219 98.2415ZM45.1746 99.4575C44.5453 99.4575 43.9746 99.3455 43.4626 99.1215C42.9506 98.8868 42.508 98.5722 42.1346 98.1775C41.7613 97.7722 41.4733 97.3082 41.2706 96.7855C41.068 96.2628 40.9666 95.7135 40.9666 95.1375C40.9666 94.5508 41.068 93.9962 41.2706 93.4735C41.4733 92.9508 41.7613 92.4922 42.1346 92.0975C42.508 91.6922 42.9506 91.3775 43.4626 91.1535C43.9853 90.9188 44.556 90.8015 45.1746 90.8015C45.804 90.8015 46.3746 90.9188 46.8866 91.1535C47.3986 91.3775 47.8413 91.6922 48.2146 92.0975C48.5986 92.4922 48.892 92.9508 49.0946 93.4735C49.2973 93.9962 49.3986 94.5508 49.3986 95.1375C49.3986 95.7135 49.2973 96.2628 49.0946 96.7855C48.892 97.3082 48.604 97.7722 48.2306 98.1775C47.8573 98.5722 47.4093 98.8868 46.8866 99.1215C46.3746 99.3455 45.804 99.4575 45.1746 99.4575ZM42.4066 95.1535C42.4066 95.7295 42.5293 96.2522 42.7746 96.7215C43.0306 97.1908 43.3666 97.5642 43.7826 97.8415C44.1986 98.1082 44.6626 98.2415 45.1746 98.2415C45.6866 98.2415 46.1506 98.1028 46.5666 97.8255C46.9933 97.5482 47.3293 97.1748 47.5746 96.7055C47.8306 96.2255 47.9586 95.6975 47.9586 95.1215C47.9586 94.5455 47.8306 94.0228 47.5746 93.5535C47.3293 93.0842 46.9933 92.7108 46.5666 92.4335C46.1506 92.1562 45.6866 92.0175 45.1746 92.0175C44.6626 92.0175 44.1986 92.1615 43.7826 92.4495C43.3666 92.7268 43.0306 93.1002 42.7746 93.5695C42.5293 94.0388 42.4066 94.5668 42.4066 95.1535ZM51.0888 99.2975V90.9455H52.4968V94.3855H53.4248L56.0488 90.9455H57.6488L54.5288 94.9935L58.0168 99.2975H56.3848L53.4248 95.6815H52.4968V99.2975H51.0888ZM58.7456 96.8815C58.7456 96.3482 58.895 95.8895 59.1936 95.5055C59.503 95.1108 59.9243 94.8068 60.4576 94.5935C60.991 94.3802 61.6096 94.2735 62.3136 94.2735C62.687 94.2735 63.0816 94.3055 63.4976 94.3695C63.9136 94.4228 64.2816 94.5082 64.6016 94.6255V94.0175C64.6016 93.3775 64.4096 92.8762 64.0256 92.5135C63.6416 92.1402 63.0976 91.9535 62.3936 91.9535C61.935 91.9535 61.4923 92.0388 61.0656 92.2095C60.6496 92.3695 60.207 92.6042 59.7376 92.9135L59.2256 91.9215C59.7696 91.5482 60.3136 91.2708 60.8576 91.0895C61.4016 90.8975 61.967 90.8015 62.5536 90.8015C63.6203 90.8015 64.463 91.1002 65.0816 91.6975C65.7003 92.2842 66.0096 93.1055 66.0096 94.1615V97.6975C66.0096 97.8682 66.0416 97.9962 66.1056 98.0815C66.1803 98.1562 66.2976 98.1988 66.4576 98.2095V99.2975C66.319 99.3188 66.1963 99.3348 66.0896 99.3455C65.9936 99.3562 65.9136 99.3615 65.8496 99.3615C65.519 99.3615 65.2683 99.2708 65.0976 99.0895C64.9376 98.9082 64.847 98.7162 64.8256 98.5135L64.7936 97.9855C64.431 98.4548 63.9563 98.8175 63.3696 99.0735C62.783 99.3295 62.2016 99.4575 61.6256 99.4575C61.071 99.4575 60.575 99.3455 60.1376 99.1215C59.7003 98.8868 59.359 98.5775 59.1136 98.1935C58.8683 97.7988 58.7456 97.3615 58.7456 96.8815ZM64.1856 97.4735C64.3136 97.3242 64.415 97.1748 64.4896 97.0255C64.5643 96.8655 64.6016 96.7322 64.6016 96.6255V95.5855C64.271 95.4575 63.9243 95.3615 63.5616 95.2975C63.199 95.2228 62.8416 95.1855 62.4896 95.1855C61.775 95.1855 61.1936 95.3295 60.7456 95.6175C60.3083 95.8948 60.0896 96.2788 60.0896 96.7695C60.0896 97.0362 60.159 97.2975 60.2976 97.5535C60.447 97.7988 60.6603 98.0015 60.9376 98.1615C61.2256 98.3215 61.5776 98.4015 61.9936 98.4015C62.431 98.4015 62.847 98.3162 63.2416 98.1455C63.6363 97.9642 63.951 97.7402 64.1856 97.4735ZM70.1993 99.2975V92.1935H67.3193V90.9455H74.4873V92.1935H71.6073V99.2975H70.1993Z" fill="white"/>
</svg>
