<svg width="24" height="24" viewBox="0 0 24 24" fill="none" xmlns="http://www.w3.org/2000/svg">
<g clip-path="url(#clip0_1124_5956)">
<path d="M18.9 16.777C20.4965 14.6434 21.2255 11.9842 20.9403 9.33473C20.6551 6.68525 19.3767 4.24219 17.3627 2.49732C15.3486 0.752445 12.7483 -0.164675 10.0852 -0.0694322C7.42209 0.0258105 4.89395 1.12634 3.00966 3.01064C1.12537 4.89493 0.0248339 7.42307 -0.0704088 10.0862C-0.165652 12.7492 0.751469 15.3495 2.49634 17.3636C4.24121 19.3777 6.68427 20.656 9.33375 20.9413C11.9832 21.2265 14.6424 20.4975 16.776 18.901L21.876 24.001L24 21.881L18.9 16.777ZM10.5 18.001C9.01664 18.001 7.56659 17.5611 6.33322 16.737C5.09985 15.9129 4.13856 14.7415 3.5709 13.3711C3.00324 12.0007 2.85472 10.4927 3.14411 9.0378C3.4335 7.58294 4.1478 6.24657 5.19669 5.19767C6.24559 4.14878 7.58196 3.43447 9.03682 3.14508C10.4917 2.85569 11.9997 3.00422 13.3701 3.57188C14.7406 4.13953 15.9119 5.10083 16.736 6.3342C17.5601 7.56756 18 9.01761 18 10.501C17.9981 12.4895 17.2074 14.3961 15.8013 15.8022C14.3951 17.2083 12.4886 17.9991 10.5 18.001Z" fill="white"/>
</g>
<defs>
<clipPath id="clip0_1124_5956">
<rect width="24" height="24" fill="white"/>
</clipPath>
</defs>
</svg>
