<svg width="20" height="21" viewBox="0 0 20 21" fill="none" xmlns="http://www.w3.org/2000/svg">
<g clip-path="url(#clip0_976_638)">
<path d="M9.99967 3.59749C10.9201 3.59749 11.6663 2.8513 11.6663 1.93083C11.6663 1.01035 10.9201 0.26416 9.99967 0.26416C9.0792 0.26416 8.33301 1.01035 8.33301 1.93083C8.33301 2.8513 9.0792 3.59749 9.99967 3.59749Z" fill="white"/>
<path d="M9.99967 11.931C10.9201 11.931 11.6663 11.1848 11.6663 10.2643C11.6663 9.34385 10.9201 8.59766 9.99967 8.59766C9.0792 8.59766 8.33301 9.34385 8.33301 10.2643C8.33301 11.1848 9.0792 11.931 9.99967 11.931Z" fill="white"/>
<path d="M9.99967 20.264C10.9201 20.264 11.6663 19.5178 11.6663 18.5973C11.6663 17.6769 10.9201 16.9307 9.99967 16.9307C9.0792 16.9307 8.33301 17.6769 8.33301 18.5973C8.33301 19.5178 9.0792 20.264 9.99967 20.264Z" fill="white"/>
</g>
<defs>
<clipPath id="clip0_976_638">
<rect width="20" height="20" fill="white" transform="translate(0 0.26416)"/>
</clipPath>
</defs>
</svg>
