<svg width="18" height="18" viewBox="0 0 18 18" fill="none" xmlns="http://www.w3.org/2000/svg">
<path d="M17.205 0.795045C16.6951 0.285944 16.004 0 15.2835 0C14.5629 0 13.8718 0.285944 13.362 0.795045L0 14.157V18H3.84299L17.205 4.63803C17.7139 4.12805 17.9997 3.43701 17.9997 2.71654C17.9997 1.99607 17.7139 1.30503 17.205 0.795045ZM3.22499 16.5H1.5V14.775L11.4825 4.80003L13.2075 6.52503L3.22499 16.5ZM16.1445 3.57754L14.2642 5.45778L12.543 3.73279L14.4225 1.85554C14.6512 1.62679 14.9615 1.49828 15.285 1.49828C15.6085 1.49828 15.9187 1.62679 16.1475 1.85554C16.3762 2.08429 16.5047 2.39454 16.5047 2.71804C16.5047 3.04154 16.3762 3.35179 16.1475 3.58054L16.1445 3.57754Z" fill="white"/>
</svg>
