<svg width="20" height="20" viewBox="0 0 20 20" fill="none" xmlns="http://www.w3.org/2000/svg">
<g clip-path="url(#clip0_1696_641)">
<path d="M10 0C12.4618 0.00744699 14.8348 0.92045 16.6667 2.565V0H18.3333V4.28583C18.3329 4.69612 18.1697 5.08948 17.8796 5.37959C17.5895 5.66971 17.1961 5.83289 16.7858 5.83333H12.5V4.16667H15.9342C14.5798 2.79464 12.791 1.9355 10.8734 1.73602C8.95589 1.53655 7.02857 2.00913 5.42079 3.07301C3.813 4.1369 2.62454 5.72606 2.05846 7.56898C1.49238 9.41191 1.58381 11.3942 2.31712 13.1772C3.05044 14.9602 4.38014 16.4332 6.07902 17.3446C7.77791 18.256 9.74055 18.5491 11.6316 18.174C13.5227 17.7989 15.2248 16.7787 16.4471 15.2878C17.6694 13.797 18.3362 11.9279 18.3333 10H20C20 11.9778 19.4135 13.9112 18.3147 15.5557C17.2159 17.2002 15.6541 18.4819 13.8268 19.2388C11.9996 19.9957 9.98891 20.1937 8.0491 19.8079C6.10929 19.422 4.32746 18.4696 2.92894 17.0711C1.53041 15.6725 0.578004 13.8907 0.192152 11.9509C-0.193701 10.0111 0.00433286 8.00043 0.761209 6.17317C1.51809 4.3459 2.79981 2.78412 4.4443 1.6853C6.08879 0.58649 8.02219 0 10 0V0Z" fill="#4DD0FF"/>
<path d="M9.1665 5.83301V10.3447L11.9107 13.0888L13.089 11.9105L10.8332 9.65467V5.83301H9.1665Z" fill="#4DD0FF"/>
</g>
<defs>
<clipPath id="clip0_1696_641">
<rect width="20" height="20" fill="white"/>
</clipPath>
</defs>
</svg>
