<svg width="24" height="24" viewBox="0 0 24 24" fill="none" xmlns="http://www.w3.org/2000/svg">
<path d="M23.4706 16.2467L20.6089 19.1098L19.195 17.6958L20.8909 15.9997H13.9996V13.9997H20.9549L19.195 12.2386L20.6089 10.8245L23.4706 13.6866C23.8096 14.0264 24 14.4867 24 14.9667C24 15.4466 23.8096 15.907 23.4706 16.2467ZM6.49934 10.9995C6.10142 10.9997 5.71985 11.1579 5.43858 11.4394C5.1573 11.7209 4.99936 12.1026 4.99949 12.5006C4.99962 12.8986 5.15782 13.2802 5.43929 13.5615C5.72075 13.8428 6.10242 14.0008 6.50034 14.0007C6.89825 14.0005 7.27982 13.8423 7.5611 13.5608C7.84237 13.2793 8.00032 12.8976 8.00019 12.4996C8.00005 12.1016 7.84185 11.72 7.56039 11.4387C7.27893 11.1574 6.89725 10.9994 6.49934 10.9995ZM13.9986 17.9998H15.9984V24H0V4.19931C0.00164987 3.50638 0.242445 2.83527 0.681692 2.29939C1.12094 1.76351 1.7317 1.39573 2.41075 1.25821L8.41114 0.0581676C8.84647 -0.0288079 9.29566 -0.018131 9.72636 0.0894291C10.1571 0.196989 10.5585 0.398755 10.9019 0.680189C11.3298 1.0312 11.6298 1.49222 11.8098 1.99924H12.9997C14.6535 1.99924 15.9994 3.34528 15.9994 4.99934V11.9996H13.9996V4.99934C13.9996 4.73411 13.8942 4.47975 13.7067 4.29221C13.5192 4.10466 13.2649 3.9993 12.9997 3.9993H11.9998V21.9999H13.9996V17.9998H13.9986ZM9.99898 3.00027C9.99942 2.85229 9.96679 2.70608 9.90348 2.57233C9.84016 2.43858 9.74775 2.32068 9.63302 2.22724C9.51844 2.13375 9.38469 2.06664 9.24125 2.03069C9.09781 1.99474 8.94822 1.99083 8.8031 2.01924L2.80371 3.21928C2.57739 3.2651 2.3738 3.38763 2.22734 3.56618C2.08087 3.74473 2.0005 3.96836 1.9998 4.19931V21.9999H9.99898V3.00027Z" fill="white"/>
</svg>
