<svg width="76" height="27" viewBox="0 0 76 27" fill="none" xmlns="http://www.w3.org/2000/svg">
<path fill-rule="evenodd" clip-rule="evenodd" d="M11.9318 24.6747H9.00781V3.73584H11.9318V24.6747Z" fill="#F980FF"/>
<path fill-rule="evenodd" clip-rule="evenodd" d="M0 12.7432H20.9388V15.6671H0V12.7432Z" fill="#4DD0FF"/>
<path fill-rule="evenodd" clip-rule="evenodd" d="M18.9065 20.574L16.8388 22.6417L2.0332 7.83528L4.10012 5.76758L18.9065 20.574Z" fill="#F95B1C"/>
<path fill-rule="evenodd" clip-rule="evenodd" d="M4.10041 22.6414L2.03271 20.5737L16.8391 5.76807L18.9068 7.83509L4.10041 22.6414Z" fill="#4ECE69"/>
<path fill-rule="evenodd" clip-rule="evenodd" d="M39.083 13.4409H41.3355L42.4801 10.8971H47.0277L48.1721 13.4409H50.4248L45.8802 3.34482L45.893 3.31445H43.614L43.6277 3.34482L39.083 13.4409ZM46.103 8.84311H43.4048L44.7539 5.84601L46.103 8.84311Z" fill="#F9F9F9"/>
<path fill-rule="evenodd" clip-rule="evenodd" d="M27 13.4409H29.2525L32.6708 5.84601L36.0891 13.4409H38.3416L33.7971 3.34482L33.81 3.31445H31.5308L31.5445 3.34482L27 13.4409Z" fill="#F9F9F9"/>
<path fill-rule="evenodd" clip-rule="evenodd" d="M54.2635 13.4409V13.4425L59.3002 6.62322V13.4409H61.3542V3.31445H59.3002V3.31602L54.2635 10.136V3.31445H52.2095V13.4409H54.2635Z" fill="#F9F9F9"/>
<path fill-rule="evenodd" clip-rule="evenodd" d="M66.347 13.4405V6.60233L68.7652 10.0709L68.7584 10.0808L68.7851 10.0998L70.0619 11.8033L70.4429 11.2556L71.2483 10.0998L71.2756 10.0808L71.2688 10.0709L73.4096 6.99939V13.4405H75.4636V3.31407H73.4096L73.4156 3.31104L70.0171 8.27543L66.5585 3.31407H64.293V13.4405H66.347Z" fill="#F9F9F9"/>
<path fill-rule="evenodd" clip-rule="evenodd" d="M55.7933 0L58.0442 3.08687H55.6563L53.4053 0H55.7933Z" fill="#F9F9F9"/>
<path d="M28.0189 24V17.748H33.0469V24H32.2309V18.48H28.8349V24H28.0189ZM38.0432 24.12C37.5232 24.12 37.0552 23.984 36.6392 23.712C36.2312 23.44 35.9072 23.104 35.6672 22.704V26.556H34.8512V17.748H35.5832V18.96C35.8312 18.568 36.1632 18.252 36.5792 18.012C36.9952 17.764 37.4392 17.64 37.9112 17.64C38.3432 17.64 38.7392 17.732 39.0992 17.916C39.4592 18.092 39.7712 18.332 40.0352 18.636C40.2992 18.94 40.5032 19.288 40.6472 19.68C40.7992 20.064 40.8752 20.464 40.8752 20.88C40.8752 21.464 40.7552 22.004 40.5152 22.5C40.2832 22.988 39.9552 23.38 39.5312 23.676C39.1072 23.972 38.6112 24.12 38.0432 24.12ZM37.8152 23.4C38.1592 23.4 38.4672 23.332 38.7392 23.196C39.0112 23.052 39.2432 22.86 39.4352 22.62C39.6352 22.38 39.7872 22.112 39.8912 21.816C39.9952 21.512 40.0472 21.2 40.0472 20.88C40.0472 20.544 39.9872 20.224 39.8672 19.92C39.7552 19.616 39.5912 19.348 39.3752 19.116C39.1592 18.884 38.9112 18.7 38.6312 18.564C38.3512 18.428 38.0472 18.36 37.7192 18.36C37.5112 18.36 37.2952 18.4 37.0712 18.48C36.8472 18.56 36.6312 18.676 36.4232 18.828C36.2232 18.972 36.0552 19.136 35.9192 19.32C35.7832 19.504 35.6992 19.7 35.6672 19.908V21.828C35.7952 22.124 35.9672 22.392 36.1832 22.632C36.3992 22.864 36.6472 23.052 36.9272 23.196C37.2152 23.332 37.5112 23.4 37.8152 23.4ZM44.9214 24.12C44.4734 24.12 44.0574 24.036 43.6734 23.868C43.2974 23.692 42.9694 23.456 42.6894 23.16C42.4174 22.856 42.2054 22.512 42.0534 22.128C41.9014 21.736 41.8254 21.324 41.8254 20.892C41.8254 20.444 41.9014 20.028 42.0534 19.644C42.2054 19.252 42.4214 18.908 42.7014 18.612C42.9814 18.308 43.3094 18.072 43.6854 17.904C44.0694 17.728 44.4854 17.64 44.9334 17.64C45.3814 17.64 45.7934 17.728 46.1694 17.904C46.5454 18.072 46.8734 18.308 47.1534 18.612C47.4334 18.908 47.6494 19.252 47.8014 19.644C47.9534 20.028 48.0294 20.444 48.0294 20.892C48.0294 21.324 47.9534 21.736 47.8014 22.128C47.6494 22.512 47.4334 22.856 47.1534 23.16C46.8814 23.456 46.5534 23.692 46.1694 23.868C45.7934 24.036 45.3774 24.12 44.9214 24.12ZM42.6534 20.904C42.6534 21.368 42.7534 21.792 42.9534 22.176C43.1614 22.552 43.4374 22.852 43.7814 23.076C44.1254 23.292 44.5054 23.4 44.9214 23.4C45.3374 23.4 45.7174 23.288 46.0614 23.064C46.4054 22.84 46.6814 22.536 46.8894 22.152C47.0974 21.76 47.2014 21.336 47.2014 20.88C47.2014 20.416 47.0974 19.992 46.8894 19.608C46.6814 19.224 46.4054 18.92 46.0614 18.696C45.7174 18.472 45.3374 18.36 44.9214 18.36C44.5054 18.36 44.1254 18.476 43.7814 18.708C43.4454 18.94 43.1734 19.248 42.9654 19.632C42.7574 20.008 42.6534 20.432 42.6534 20.904ZM49.3821 24V17.748H50.1981V20.424H51.1341L53.2341 17.748H54.1701L51.7821 20.784L54.4701 24H53.5101L51.1341 21.18H50.1981V24H49.3821ZM55.1011 22.2C55.1011 21.808 55.2131 21.472 55.4371 21.192C55.6611 20.904 55.9691 20.684 56.3611 20.532C56.7611 20.372 57.2211 20.292 57.7411 20.292C58.0451 20.292 58.3611 20.316 58.6891 20.364C59.0171 20.412 59.3091 20.484 59.5651 20.58V20.052C59.5651 19.524 59.4091 19.104 59.0971 18.792C58.7851 18.48 58.3531 18.324 57.8011 18.324C57.4651 18.324 57.1331 18.388 56.8051 18.516C56.4851 18.636 56.1491 18.816 55.7971 19.056L55.4851 18.48C55.8931 18.2 56.2931 17.992 56.6851 17.856C57.0771 17.712 57.4771 17.64 57.8851 17.64C58.6531 17.64 59.2611 17.86 59.7091 18.3C60.1571 18.74 60.3811 19.348 60.3811 20.124V23.016C60.3811 23.128 60.4051 23.212 60.4531 23.268C60.5011 23.316 60.5771 23.344 60.6811 23.352V24C60.5931 24.008 60.5171 24.016 60.4531 24.024C60.3891 24.032 60.3411 24.032 60.3091 24.024C60.1091 24.016 59.9571 23.952 59.8531 23.832C59.7491 23.712 59.6931 23.584 59.6851 23.448L59.6731 22.992C59.3931 23.352 59.0291 23.632 58.5811 23.832C58.1331 24.024 57.6771 24.12 57.2131 24.12C56.8131 24.12 56.4491 24.036 56.1211 23.868C55.8011 23.692 55.5491 23.46 55.3651 23.172C55.1891 22.876 55.1011 22.552 55.1011 22.2ZM59.2891 22.68C59.3771 22.568 59.4451 22.46 59.4931 22.356C59.5411 22.252 59.5651 22.16 59.5651 22.08V21.168C59.2931 21.064 59.0091 20.984 58.7131 20.928C58.4251 20.872 58.1331 20.844 57.8371 20.844C57.2531 20.844 56.7811 20.96 56.4211 21.192C56.0611 21.424 55.8811 21.74 55.8811 22.14C55.8811 22.372 55.9411 22.592 56.0611 22.8C56.1811 23 56.3571 23.168 56.5891 23.304C56.8211 23.432 57.0931 23.496 57.4051 23.496C57.7971 23.496 58.1611 23.42 58.4971 23.268C58.8411 23.116 59.1051 22.92 59.2891 22.68ZM63.6104 24V18.48H61.3784V17.748H66.6584V18.48H64.4264V24H63.6104Z" fill="white"/>
</svg>
